<svg width="179" height="136" viewBox="0 0 179 136" fill="none" xmlns="http://www.w3.org/2000/svg">
<path d="M72.8251 22.7824C81.2305 11.8025 97.7695 11.8025 106.175 22.7824L141.161 68.4849C151.738 82.3017 141.887 102.25 124.486 102.25H54.5136C37.1131 102.25 27.2616 82.3017 37.8387 68.4849L72.8251 22.7824Z" fill="#56B455"/>
<rect width="63" height="13" rx="6.5" transform="matrix(1 0 0 -1 99 57)" fill="white"/>
<path d="M56 62L103 85L97 104H77L56 62Z" fill="white"/>
<line x1="51.2428" y1="48.5629" x2="150.243" y2="103.563" stroke="white"/>
<line x1="111.539" y1="103.807" x2="134.539" y2="48.8071" stroke="white"/>
<line x1="17.6228" y1="108.672" x2="111.623" y2="0.671742" stroke="white"/>
<line x1="89.4966" y1="97.9416" x2="93.4966" y2="131.942" stroke="#67B85A"/>
<line x1="73.4141" y1="97.7198" x2="96.4141" y2="131.72" stroke="#67B85A"/>
<path d="M100 102L93 132" stroke="#67B85A"/>
<line x1="75.9792" y1="98.5004" x2="99.9792" y2="97.5004" stroke="#56B455"/>
</svg>
