<svg width="559" height="520" viewBox="0 0 559 520" fill="none" xmlns="http://www.w3.org/2000/svg">
<ellipse cx="285.5" cy="390" rx="246.5" ry="130" fill="#622828"/>
<path d="M2.83966 213.572C-7.6418 158.356 11.1281 102.243 55.0626 57.4493C98.9971 12.656 164.538 -17.1894 237.415 -25.5887C310.292 -33.988 384.604 -20.2609 444.169 12.6037C503.734 45.4684 543.729 94.809 555.447 149.883C567.164 204.956 549.654 261.302 506.73 306.653C463.805 352.003 398.942 382.685 326.264 392.019C253.586 401.352 178.977 388.58 118.684 356.485C58.3913 324.389 17.2959 275.569 4.34628 220.653L182.139 196.646C186.721 216.078 201.262 233.353 222.597 244.709C243.931 256.066 270.33 260.585 296.047 257.283C321.764 253.98 344.715 243.124 359.904 227.077C375.092 211.03 381.288 191.092 377.142 171.605C372.996 152.117 358.844 134.658 337.767 123.03C316.69 111.401 290.396 106.543 264.609 109.515C238.822 112.487 215.63 123.048 200.084 138.898C184.539 154.748 177.897 174.603 181.606 194.141L2.83966 213.572Z" fill="white"/>
<rect width="18" height="245" transform="matrix(-1 0 0 1 354 150)" fill="#491E1E"/>
<path d="M333 179H543V284H333V179Z" fill="#F2F2F2"/>
<line x1="343.21" y1="188.546" x2="548.21" y2="283.546" stroke="black"/>
<line x1="344.788" y1="283.547" x2="547.788" y2="188.547" stroke="black"/>
</svg>
